<?xml version="1.0" standalone="no"?>
<!DOCTYPE svg PUBLIC "-//W3C//DTD SVG 20010904//EN"
 "http://www.w3.org/TR/2001/REC-SVG-20010904/DTD/svg10.dtd">
<svg version="1.0" xmlns="http://www.w3.org/2000/svg"
 width="748.000000pt" height="748.000000pt" viewBox="0 0 748.000000 748.000000"
 preserveAspectRatio="xMidYMid meet">
<metadata>
Created by potrace 1.14, written by Peter Selinger 2001-2017
</metadata>
<g transform="translate(0.000000,748.000000) scale(0.100000,-0.100000)"
fill="#000000" stroke="none">
<path d="M5550 6569 c-168 -54 -275 -86 -459 -139 -213 -62 -245 -78 -208
-107 6 -6 68 -34 137 -63 209 -88 448 -216 620 -333 186 -126 451 -369 587
-537 408 -505 636 -1131 636 -1745 0 -104 -10 -305 -17 -340 -2 -11 -7 -49
-11 -85 -7 -63 -9 -76 -20 -130 -2 -14 -7 -41 -10 -60 -22 -135 -133 -490
-196 -627 -10 -24 -19 -45 -19 -49 0 -6 -78 -163 -108 -216 -55 -97 -90 -142
-93 -121 -3 18 -7 85 -14 213 -10 197 -13 222 -25 234 -17 16 -30 -6 -85 -142
-55 -134 -159 -341 -230 -457 -122 -200 -244 -354 -415 -524 -102 -101 -322
-274 -385 -303 -14 -6 -25 -15 -25 -20 0 -4 -4 -8 -9 -8 -10 0 -73 -41 -121
-79 l-25 -20 24 -9 c39 -14 126 -8 326 24 57 9 230 45 260 54 357 107 533 186
780 349 38 25 77 51 85 58 8 7 44 35 80 63 157 124 430 416 430 459 0 17 -13
14 -183 -30 -86 -23 -159 -40 -162 -37 -8 7 22 64 82 155 100 153 265 504 347
740 47 135 116 407 130 513 2 19 8 58 11 85 4 28 9 61 11 75 23 138 23 630 0
770 -2 14 -8 52 -11 85 -4 33 -9 71 -11 85 -1 14 -6 41 -9 60 -4 19 -9 46 -11
60 -11 60 -65 272 -88 341 -117 358 -341 746 -604 1049 -76 88 -295 306 -357
355 -27 22 -57 46 -65 54 -28 27 -195 148 -280 203 -184 119 -203 125 -290 97z"/>
<path d="M2240 6564 c-41 -7 -88 -15 -105 -18 -16 -3 -50 -9 -74 -12 -36 -5
-148 -27 -299 -60 -13 -2 -86 -25 -161 -50 -233 -76 -472 -203 -685 -363 -154
-116 -456 -418 -456 -457 0 -3 24 -4 53 -1 57 6 60 7 162 36 97 27 135 32 135
20 0 -17 -27 -65 -101 -176 -90 -136 -285 -531 -344 -697 -44 -124 -102 -332
-124 -446 -36 -186 -45 -247 -58 -396 -15 -168 -9 -539 11 -694 2 -14 6 -50
10 -80 4 -30 9 -62 11 -70 2 -8 7 -35 10 -60 15 -116 81 -361 135 -506 34 -91
149 -333 198 -419 59 -102 106 -175 118 -186 8 -6 14 -16 14 -21 0 -14 155
-221 236 -313 131 -152 342 -350 479 -450 22 -17 42 -32 45 -35 9 -10 164
-115 232 -158 37 -23 79 -44 95 -46 27 -5 84 9 288 69 133 39 415 115 427 115
20 0 47 31 41 47 -3 8 -30 25 -59 39 -136 61 -162 73 -209 95 -207 96 -505
288 -675 435 -68 59 -271 263 -317 319 -214 258 -359 493 -457 740 -16 39 -32
79 -37 90 -9 22 -59 178 -78 240 -12 43 -51 207 -56 240 -35 224 -45 329 -45
505 0 422 75 776 254 1209 81 195 234 466 253 448 3 -3 7 -59 10 -124 2 -65 6
-147 8 -183 2 -36 4 -84 4 -107 1 -32 5 -43 17 -43 14 0 31 31 101 190 186
418 462 786 778 1036 55 43 102 81 105 85 8 9 110 74 190 121 85 50 120 77
120 94 0 14 -104 14 -200 -2z"/>
<path d="M3618 6335 c-1 -1 -39 -6 -83 -9 -195 -15 -493 -90 -699 -176 -621
-259 -1110 -749 -1359 -1360 -32 -80 -92 -252 -102 -296 -19 -84 -55 -264 -60
-302 -3 -26 -9 -78 -14 -117 -9 -76 -7 -415 3 -505 6 -49 25 -162 41 -245 61
-312 229 -683 434 -960 40 -55 81 -107 90 -117 9 -9 47 -51 86 -95 136 -153
329 -312 526 -433 257 -160 665 -312 924 -345 28 -3 64 -8 80 -11 17 -2 50 -6
75 -9 56 -6 386 -6 420 -1 14 3 52 7 85 11 140 15 276 44 445 95 138 42 171
55 350 138 227 104 490 294 687 494 224 227 371 443 516 758 75 161 163 485
182 665 4 33 9 74 12 90 9 49 10 389 2 452 -4 32 -10 81 -13 108 -58 510 -327
1057 -707 1435 -86 86 -119 115 -223 201 -134 112 -360 246 -566 337 -94 41
-369 131 -453 148 -69 13 -199 34 -247 40 -61 6 -426 14 -432 9z m219 -2501
c-3 -3 -12 -4 -19 -1 -8 3 -5 6 6 6 11 1 17 -2 13 -5z"/>
</g>
</svg>
